<?xml version="1.0" encoding="UTF-8" standalone="no"?>
<!-- Created with Inkscape (http://www.inkscape.org/) -->

<svg
   width="117.4187mm"
   height="33.160355mm"
   viewBox="0 0 117.4187 33.160354"
   version="1.1"
   id="svg5"
   xml:space="preserve"
   inkscape:version="1.2.1 (9c6d41e410, 2022-07-14)"
   sodipodi:docname="Arg_Programa.svg"
   xmlns:inkscape="http://www.inkscape.org/namespaces/inkscape"
   xmlns:sodipodi="http://sodipodi.sourceforge.net/DTD/sodipodi-0.dtd"
   xmlns="http://www.w3.org/2000/svg"
   xmlns:svg="http://www.w3.org/2000/svg"><sodipodi:namedview
     id="namedview7"
     pagecolor="#505050"
     bordercolor="#eeeeee"
     borderopacity="1"
     inkscape:showpageshadow="0"
     inkscape:pageopacity="0"
     inkscape:pagecheckerboard="0"
     inkscape:deskcolor="#505050"
     inkscape:document-units="mm"
     showgrid="false"
     inkscape:lockguides="false"
     inkscape:zoom="1.4142136"
     inkscape:cx="291.68155"
     inkscape:cy="57.982756"
     inkscape:window-width="1366"
     inkscape:window-height="705"
     inkscape:window-x="-8"
     inkscape:window-y="-8"
     inkscape:window-maximized="1"
     inkscape:current-layer="layer1" /><defs
     id="defs2" /><g
     inkscape:label="Capa 1"
     inkscape:groupmode="layer"
     id="layer1"
     transform="translate(-12.530686,-15.27472)"><path
       style="fill:#000000;stroke-width:0.169333"
       id="path181"
       d="" /><path
       style="fill:#000000;stroke-width:0.169333"
       id="path179"
       d="" /><path
       style="fill:#000000;stroke-width:0.169333"
       id="path188"
       d="" /><path
       style="fill:#000000;stroke-width:0.169333"
       id="path186"
       d="" /><path
       style="fill:#ffffff;fill-opacity:1;stroke-width:0.169333"
       d="m 85.092038,46.427452 c 0,0.554521 -0.550333,-0.07923 -0.550333,-1.064554 v -0.987439 l 0.635,0.147461 c 0.920303,0.213715 2.664341,0.188068 3.179731,-0.04676 0.531561,-0.242194 0.926602,-0.944303 0.926602,-1.646853 V 42.318 l -0.616297,0.418231 c -0.469727,0.318766 -0.836754,0.41823 -1.543277,0.41823 -1.716544,0 -2.774291,-0.966345 -3.12562,-2.855531 -0.404761,-2.176487 0.36875,-4.094854 1.983194,-4.918476 0.766252,-0.39091 1.02358,-0.429934 2.709334,-0.410872 1.024466,0.01158 2.091264,0.09187 2.370666,0.178418 l 0.508,0.157356 v 4.390219 4.390219 l -0.463274,0.788069 c -0.692948,1.178765 -1.603183,1.565583 -3.770059,1.602137 -0.931333,0.01571 -2.243667,-0.354196 -2.243667,-0.04855 z m 3.957268,-5.491145 c -0.079,-0.237008 0.233967,-0.619551 0.196557,-2.167194 l -0.04749,-1.964652 -0.656783,-0.05385 c -1.449203,-0.118821 -2.191253,0.682796 -2.192787,2.368836 -0.001,1.051267 0.327912,1.743598 0.954442,2.009277 0.450508,0.191037 1.883486,0.219859 1.746062,-0.192414 z m -29.230268,-0.24526 v -5.680746 l 1.058334,0.05041 c 0.950266,0.04526 1.06385,0.08928 1.112399,0.431082 l 0.05407,0.380669 0.553987,-0.422548 c 1.623126,-1.238023 4.269899,-0.289704 4.831029,1.730917 0.223466,0.804695 0.231508,2.661908 0.0148,3.417529 -0.457745,1.596063 -1.781781,2.524519 -3.81993,2.678667 l -1.264688,0.09565 v 1.499559 1.499558 h -1.27 -1.27 z m 4.879328,0.201056 c 0,-0.59137 0.454672,-0.56432 0.454672,-1.820152 0,-1.286202 -0.02758,-1.389207 -0.475108,-1.774151 -0.510014,-0.438695 -1.410527,-0.544232 -1.991357,-0.233382 -0.297195,0.159055 -0.327535,0.372747 -0.327535,2.306968 v 2.131678 l 0.942328,-0.07814 c 0.733962,-0.06086 1.397,-0.03199 1.397,-0.532816 z m 12.48713,2.179025 c -0.953587,-0.339699 -1.473254,-0.771179 -1.957124,-1.625 -0.370563,-0.653881 -0.422834,-0.947534 -0.419322,-2.355667 0.0041,-1.638173 0.197341,-2.301642 0.905408,-3.108352 0.777142,-0.885409 2.729386,-1.321696 4.265355,-0.953223 1.233996,0.29603 2.231517,1.293808 2.527672,2.528319 0.466562,1.944851 -0.06396,4.102762 -1.223884,4.978151 -1.026263,0.774517 -2.783142,1.004206 -4.098105,0.535772 z m 2.524342,-2.012073 c 0.774205,-0.774205 0.774205,-3.162984 0,-3.937189 -0.468844,-0.468844 -1.336062,-0.536121 -1.891936,-0.146772 -0.558546,0.391221 -0.836173,1.867734 -0.572623,3.0454 0.236374,1.056228 0.636566,1.440633 1.499801,1.440633 0.366486,0 0.702882,-0.140196 0.964758,-0.402072 z m 20.464092,1.945141 c -0.9435,-0.1887 -1.2389,-1.068101 -1.2389,-2.228926 0,-0.759597 0.0716,-0.943581 0.55521,-1.427216 0.5614,-0.561404 1.25974,-0.784361 3.21246,-1.02563 0.68542,-0.08469 0.80395,-0.154176 0.80174,-0.470005 -0.003,-0.465716 -0.15267,-0.69129 -0.62128,-0.937942 -0.44546,-0.234471 -1.96144,-0.255179 -2.72158,-0.03717 l -0.54921,0.157514 v -0.916286 c 0,-0.856507 0.0304,-0.924413 0.46566,-1.040823 0.78117,-0.208912 3.47133,-0.150903 4.15054,0.0895 0.35688,0.126315 0.84077,0.492528 1.10067,0.833003 0.46321,0.606829 0.46386,0.611672 0.51907,3.880916 l 0.0553,3.273331 h -1.02894 c -0.91606,0 -1.02895,-0.03716 -1.02895,-0.338667 0,-0.426329 -0.0683,-0.423516 -0.67895,0.02797 -0.70104,0.518302 -1.99411,0.360177 -2.99282,0.160435 z m 2.9018,-1.57025 c 0.37569,-0.171177 0.4313,-0.302169 0.4313,-1.016 0,-0.910141 -0.0511,-0.937025 -1.25244,-0.658358 -0.74263,0.17227 -0.94254,0.395805 -0.9463,1.058125 -0.004,0.735494 0.85117,1.033716 1.76744,0.616233 z m 18.9422,1.560769 c -0.91846,0.09185 -1.23916,-1.049843 -1.23826,-2.075512 0.001,-1.530391 0.89629,-2.225152 3.24585,-2.519761 0.77117,-0.0967 1.42046,-0.194154 1.44288,-0.216574 0.16311,-0.163107 -0.30461,-1.079879 -0.63717,-1.248911 -0.47722,-0.242559 -1.82373,-0.271366 -2.73986,-0.05862 l -0.635,0.147461 v -0.910275 c 0,-0.849038 0.0313,-0.918905 0.46566,-1.038566 0.25612,-0.07056 1.22767,-0.12831 2.159,-0.128334 1.86937,-4.9e-5 2.51355,0.231689 3.19964,1.151033 0.32881,0.440609 0.3604,0.732571 0.40884,3.77642 l 0.0525,3.298892 -0.97687,-0.05109 c -0.87023,-0.04551 -0.98719,-0.09513 -1.07142,-0.454562 -0.0894,-0.381469 -0.10825,-0.386965 -0.34561,-0.100768 -0.63897,0.770433 -2.04014,0.300163 -3.33016,0.429165 z m 3.26346,-1.715391 c 0.1704,-0.141422 0.23881,-0.443153 0.20503,-0.904221 l -0.0507,-0.691976 -0.84667,0.05496 c -0.94388,0.06127 -1.43933,0.396948 -1.43933,0.975194 0,0.631669 0.47263,0.966519 1.2223,0.865969 0.3595,-0.04822 0.76873,-0.183185 0.90939,-0.299922 z M 15.829413,48.287789 C 14.570352,47.981272 13.46011,47.021208 12.879379,45.736794 12.542476,44.991658 12.534805,44.68435 12.532786,31.851461 l -0.0021,-13.123333 0.395107,-0.846667 c 0.217309,-0.465667 0.708714,-1.129372 1.092011,-1.474901 1.344429,-1.211955 0.455322,-1.16283 20.113745,-1.111261 l 17.596495,0.04616 0.798726,0.408215 c 0.961043,0.491172 1.4939,1.030529 2.022435,2.047118 l 0.396172,0.762 v 13.292667 13.292667 l -0.395886,0.803881 c -0.217737,0.442134 -0.70971,1.0725 -1.09327,1.400815 -1.336701,1.144165 -0.51381,1.099168 -19.750578,1.079971 -9.552546,-0.0095 -17.596866,-0.07299 -17.876266,-0.141006 z m 25.979674,-6.03738 c 0.673295,-0.566539 0.717324,-1.412675 0.105356,-2.024644 l -0.415636,-0.415637 h -5.924921 -5.924921 l -0.466643,0.401389 c -0.355362,0.305669 -0.466642,0.55319 -0.466642,1.037944 0,0.484754 0.11128,0.732275 0.466642,1.037944 l 0.466643,0.401389 h 5.819565 5.819565 z M 23.363775,38.328461 c 1.071487,-1.025852 5.582819,-6.526938 5.693543,-6.942667 0.05581,-0.20955 0.0547,-0.567383 -0.0025,-0.795184 -0.05718,-0.227802 -1.430569,-2.011025 -3.051979,-3.96272 -3.101644,-3.733453 -3.390755,-3.971606 -4.369615,-3.599444 -0.600135,0.228171 -0.978725,0.826111 -0.973179,1.537026 0.004,0.516132 0.326302,0.984973 2.371003,3.449281 1.381744,1.665303 2.317607,2.933529 2.249214,3.048 -0.06442,0.107823 -0.811198,1.034241 -1.659504,2.058708 -2.794073,3.374295 -2.965373,3.620472 -2.965373,4.261565 0,0.426865 0.137155,0.727642 0.494974,1.08546 0.709358,0.709358 1.369865,0.667573 2.213388,-0.140025 z m 45.768597,0.762 v -4.064 h 1.016 1.016 v 0.525541 0.525541 l 0.58552,-0.514094 c 0.581543,-0.510602 1.889293,-0.871251 2.281124,-0.629085 0.09974,0.06164 0.181356,0.55535 0.181356,1.097122 v 0.985038 l -0.915735,0.07594 c -0.503655,0.04177 -1.113254,0.205362 -1.354666,0.36354 l -0.438933,0.287599 v 2.705428 2.705431 h -1.185333 -1.185333 z m 24.384004,0 v -4.064 h 1.016 1.015994 v 0.525541 0.525541 l 0.58552,-0.514094 c 0.58154,-0.5106 1.88929,-0.871251 2.28112,-0.629085 0.0998,0.06164 0.18136,0.55535 0.18136,1.097122 v 0.985038 l -0.91574,0.07594 c -0.50365,0.04177 -1.11325,0.205356 -1.35467,0.36354 l -0.43893,0.287599 v 2.705428 2.705431 h -1.185324 -1.18533 z m 14.223994,-0.0085 V 35.00951 l 0.97366,0.05078 c 0.85252,0.04446 0.98021,0.09669 1.0262,0.419757 l 0.0525,0.368974 0.59949,-0.40683 c 1.10384,-0.749094 2.52695,-0.751524 3.39391,-0.0058 l 0.45914,0.394934 0.61546,-0.407294 c 0.90437,-0.598486 2.14743,-0.701216 3.07155,-0.253854 1.29011,0.624532 1.39908,0.976568 1.46266,4.724517 l 0.0553,3.259666 h -1.19828 -1.19828 v -2.717029 c 0,-2.658972 -0.009,-2.725913 -0.41564,-3.132667 -0.49012,-0.490123 -0.61833,-0.503353 -1.3791,-0.142343 l -0.57593,0.273297 v 2.859373 2.859373 h -1.08927 -1.08927 l -0.0537,-2.809332 c -0.0524,-2.742765 -0.0635,-2.817237 -0.46635,-3.143086 -0.4563,-0.369078 -1.06544,-0.311197 -1.57704,0.149855 -0.25925,0.233626 -0.29634,0.613473 -0.29634,3.034808 v 2.767755 h -1.18533 -1.18533 z M 77.556705,31.865663 c -0.31985,0.31985 -0.465667,-0.120979 -0.465667,-1.070133 v -0.991104 l 0.623677,0.172206 c 0.34302,0.09471 1.217696,0.145229 1.943721,0.112258 1.602529,-0.07277 1.994634,-0.362271 2.131155,-1.573452 l 0.08923,-0.791625 -0.639519,0.433992 c -1.262203,0.85656 -3.359774,0.439789 -4.139951,-0.822568 -0.556564,-0.900537 -0.785089,-2.424798 -0.551695,-3.679804 0.271959,-1.462395 0.857041,-2.273001 2.037393,-2.822727 0.864054,-0.402415 1.141234,-0.44507 2.739326,-0.421547 0.9779,0.01439 2.0066,0.09492 2.286,0.178949 l 0.508,0.152777 v 4.390121 c 0,4.367666 -0.0022,4.393887 -0.421513,5.126393 -0.259915,0.453999 -0.714347,0.908226 -1.185334,1.184798 -0.690587,0.405525 -0.942406,0.451019 -2.626487,0.474513 -1.024466,0.01429 -2.144643,-0.23674 -2.328333,-0.05305 z m 4.033466,-5.484994 c -0.06388,-0.255507 0.24314,-0.597423 0.205025,-2.174223 l -0.04749,-1.964652 -0.656783,-0.05385 c -0.854731,-0.07008 -1.587195,0.243411 -1.876686,0.803223 -0.925903,1.790498 -0.08039,3.89297 1.481777,3.684643 0.352902,-0.04706 0.937932,-0.12004 0.894158,-0.295137 z m 6.465936,2.109754 c -0.987046,-0.303527 -1.850985,-1.136219 -2.123881,-2.047065 -0.112854,-0.376671 -0.205188,-1.289704 -0.205188,-2.028962 0,-2.64736 1.233335,-4.015445 3.63187,-4.02868 2.263072,-0.01249 3.387991,1.114676 3.596674,3.60385 l 0.101908,1.215561 h -2.479892 c -2.343295,0 -2.479893,0.01814 -2.479893,0.329224 0,0.181074 0.184052,0.543024 0.409003,0.804334 0.400219,0.464907 0.447488,0.475109 2.201416,0.475109 h 1.792414 l -8.3e-5,0.865984 -8.3e-5,0.865983 -0.785634,0.107684 c -1.256413,0.172212 -2.790822,0.10384 -3.658631,-0.163022 z m 2.749986,-4.766962 c -0.0039,-0.524378 -0.425754,-1.446875 -0.762574,-1.667567 -0.86975,-0.569882 -1.945814,0.183781 -1.945814,1.362824 0,0.426789 0.01554,0.431743 1.354667,0.431743 0.745066,0 1.354241,-0.05715 1.353721,-0.127 z m 15.011077,4.863556 c -0.26612,-0.07975 -0.63587,-0.28257 -0.82167,-0.450711 -0.71951,-0.651148 -0.87478,-1.234862 -0.94863,-3.566179 l -0.0711,-2.243666 h -0.57305 -0.57305 v -0.921112 -0.921111 l 0.6338,-0.05256 c 0.62224,-0.0516 0.63597,-0.068 0.75257,-0.899221 0.29065,-2.072 0.21088,-1.947334 1.24597,-1.947334 h 0.92366 v 1.439334 1.439333 h 1.10067 1.10066 v 0.923253 0.923253 l -1.05833,0.05041 -1.05833,0.05041 v 1.802706 c 0,2.174221 0.18725,2.515294 1.38091,2.515294 h 0.73575 v 0.913217 c 0,0.676525 -0.0694,0.939856 -0.26785,1.016 -0.3786,0.145283 -1.92644,0.101158 -2.50201,-0.07133 z m 18.36057,-0.112932 c -0.99133,0.09913 -1.2625,-1.092684 -1.2625,-2.083624 0,-1.543787 0.89319,-2.271817 3.08856,-2.517433 0.77025,-0.08618 1.44797,-0.204194 1.50604,-0.262263 0.20135,-0.201346 -0.2192,-1.024228 -0.63762,-1.247632 -0.42664,-0.227791 -2.46307,-0.193269 -3.08752,0.05234 -0.26067,0.102527 -0.29633,0.0032 -0.29633,-0.825224 v -0.941777 l 0.635,-0.128059 c 0.34925,-0.07043 1.28516,-0.131036 2.07982,-0.134673 1.76852,-0.0081 2.69713,0.347737 3.25706,1.248073 0.34989,0.562596 0.38228,0.844985 0.43364,3.78298 l 0.0555,3.175 h -1.00944 c -0.88046,0 -1.02124,-0.04507 -1.10169,-0.352737 l -0.0922,-0.352736 -0.5197,0.384231 c -0.71044,0.525251 -2.14276,0.112948 -3.04861,0.203533 z m 2.94333,-1.602806 c 0.37677,-0.171669 0.4313,-0.301425 0.4313,-1.026374 v -0.829862 l -0.80434,0.116686 c -0.44238,0.06418 -0.93252,0.183066 -1.0892,0.264196 -0.78053,0.404175 -0.37501,1.671869 0.5348,1.671869 0.27288,0 0.69022,-0.08843 0.92744,-0.196515 z m -67.970785,1.593515 c 0,-0.07001 0.788144,-2.527299 1.740942,-5.461 l 1.732359,-5.334 1.802599,-0.04794 1.802598,-0.04793 1.271471,3.942602 c 0.699309,2.168432 1.49696,4.647453 1.772556,5.508936 l 0.501083,1.566333 h -1.22374 -1.223742 l -0.412508,-1.397 -0.412509,-1.397 -2.04965,-0.04737 -2.049649,-0.04737 -0.450332,1.444372 -0.450332,1.444373 h -1.179864 c -0.648924,0 -1.171282,-0.05699 -1.171282,-0.127 z m 6.59542,-4.891398 c 0,-0.362252 -1.276975,-4.267305 -1.362158,-4.165548 -0.05737,0.06854 -0.356137,0.962813 -0.663917,1.987279 -0.307782,1.024467 -0.595578,1.957917 -0.639547,2.074334 -0.05986,0.158501 0.264863,0.211666 1.292838,0.211666 0.755032,0 1.372784,-0.04848 1.372784,-0.107731 z m 5.08,0.954398 v -4.064 h 1.016 1.016 v 0.525542 0.525541 l 0.585521,-0.514094 c 0.581543,-0.510601 1.889292,-0.871251 2.281123,-0.629086 0.09975,0.06165 0.181356,0.564787 0.181356,1.118091 v 1.006006 l -0.635,0.0037 c -0.34925,0.002 -0.95885,0.150719 -1.354667,0.330387 l -0.719666,0.326669 v 2.717613 2.717612 h -1.185334 -1.185333 z m 23.537331,0 v -4.064 h 1.015994 c 0.90311,0 1.016,0.03763 1.016,0.338667 0,0.417418 0.008,0.417366 0.81882,-0.0053 1.05749,-0.551196 2.17183,-0.599571 3.07197,-0.13336 1.30688,0.676868 1.43248,1.073948 1.50328,4.75299 l 0.0611,3.175 h -1.18903 -1.18902 l -0.0569,-2.788278 c -0.0484,-2.370937 -0.10086,-2.832187 -0.35059,-3.081635 -0.36643,-0.366032 -1.342,-0.358286 -1.91198,0.01518 -0.41772,0.273701 -0.419,0.283082 -0.419,3.064638 v 2.790096 h -1.18533 -1.185334 z m 15.578664,0 v -4.064 h 1.18533 1.18534 v 4.064 4.064 h -1.18534 -1.18533 z m 4.23333,0 v -4.064 h 1.016 c 0.97238,0 1.016,0.01828 1.016,0.425736 v 0.425736 l 0.6889,-0.455894 c 0.89741,-0.59388 2.47633,-0.660369 3.35595,-0.141327 1.08096,0.637844 1.20449,1.119446 1.20449,4.696107 v 3.177642 h -1.18534 -1.18533 v -2.761635 c 0,-3.13415 -0.0834,-3.402098 -1.05886,-3.402098 -0.3248,0 -0.79093,0.1313 -1.03584,0.29177 l -0.4453,0.29177 v 2.790097 2.790096 h -1.18533 -1.18534 z m -4.07738,-5.759961 c -0.2457,-0.425001 0.083,-1.261049 0.49553,-1.451114 0.46317,-0.213391 1.21702,-0.233148 1.64946,0.0467 0.36522,0.732653 0.31399,0.660756 0.36473,1.008811 0.0124,0.438917 -0.16381,0.713761 -0.44892,0.944663 -0.35208,0.157961 -1.54853,0.337006 -1.75487,-0.0199 z"
       id="path213"
       sodipodi:nodetypes="sscssscsssssscccsssssscscsssccsscssssccccccssssscssssssssssssssssssssscsscssssccsssssssscsscsssscssssscssssscscssscccsccscscsscccsscccsscccssscccscscsscsssssccccccccssscssccccccccccccscscssccccccccsccsscssscccscsccccccsssccccsscssscsssssscscsssssscsssssssssscsssscccssssssscsccccccssscccccccccsscssccssssssscsssscsccssssscsssssscccsscccccccccsssssssssccccccsssccsccccccccsscssccccssscccccccccccccccsscssscccsssccccccsscccss" /></g></svg>
